<svg width="141" height="26" viewBox="0 0 141 26" fill="none" xmlns="http://www.w3.org/2000/svg">
<g clip-path="url(#clip0)">
<path d="M12.427 4.72485H0V8.79729H8.26581V25.1149H12.427V18.8389V8.40678V4.72485Z" fill="white"/>
<path d="M20.6926 0.652344H12.4268V4.72478H20.6926V0.652344Z" fill="#FA64FF"/>
<path d="M39.0072 25.1149L37.3087 21.0425H26.382L24.6836 25.1149H20.2959L28.7882 4.72485H34.9875L43.4798 25.1149H39.0072ZM32.0435 8.40678H31.6189L27.9106 17.3606H35.7801L32.0435 8.40678Z" fill="white"/>
<path d="M50.2745 15.3243C50.2745 17.1653 50.8124 18.6994 51.9164 19.871C52.9921 21.0425 54.3791 21.6561 56.0776 21.6561C57.776 21.6561 59.1348 21.0704 60.2388 19.871C61.3145 18.6994 61.8806 17.1653 61.8806 15.3243V4.72485H66.0135V15.3243C66.0135 16.8027 65.7588 18.1416 65.2775 19.3968C64.768 20.652 64.0886 21.7119 63.2111 22.6045C62.3336 23.4971 61.2862 24.2223 60.0689 24.7244C58.8517 25.2265 57.5213 25.5054 56.1059 25.5054C54.6905 25.5054 53.3601 25.2544 52.1428 24.7244C50.9256 24.1944 49.8782 23.4971 49.0007 22.6045C48.1232 21.7119 47.4155 20.6241 46.9342 19.3968C46.453 18.1695 46.1982 16.7748 46.1982 15.3243V4.72485H50.3311V15.3243H50.2745Z" fill="white"/>
<path d="M86.9043 16.719C87.244 17.1095 87.4705 17.4163 87.6403 17.6953L92.3111 25.1149H87.6403L82.3751 16.7469H75.8927V25.1149H71.7598V4.72485H86.0834C87.9517 4.72485 89.452 5.28272 90.5843 6.39846C91.7166 7.51419 92.2828 8.99254 92.2828 10.8335C92.2828 12.4513 91.8015 13.8181 90.8108 14.878C89.8766 15.938 88.5462 16.5517 86.9043 16.719ZM86.1117 8.40678H75.921V13.0929H86.1117C86.7345 13.0929 87.244 12.8976 87.612 12.535C87.98 12.1724 88.1782 11.6703 88.1782 11.0567V10.443C88.1782 9.82934 87.98 9.32726 87.612 8.96465C87.244 8.60203 86.7345 8.40678 86.1117 8.40678Z" fill="white"/>
<path d="M101.114 15.3243C101.114 17.1653 101.652 18.6994 102.756 19.871C103.832 21.0425 105.219 21.6561 106.917 21.6561C108.616 21.6561 109.975 21.0704 111.079 19.871C112.154 18.6994 112.72 17.1653 112.72 15.3243V4.72485H116.853V15.3243C116.853 16.8027 116.599 18.1416 116.117 19.3968C115.608 20.652 114.928 21.7119 114.051 22.6045C113.173 23.4971 112.126 24.2223 110.909 24.7244C109.692 25.2265 108.361 25.5054 106.946 25.5054C105.53 25.5054 104.2 25.2544 102.983 24.7244C101.765 24.1944 100.718 23.4971 99.8405 22.6045C98.963 21.7119 98.2553 20.6241 97.7741 19.3968C97.2929 18.1695 97.0381 16.7748 97.0381 15.3243V4.72485H101.171V15.3243H101.114Z" fill="white"/>
<path d="M121.411 19.0062H125.487C125.487 19.8709 126.025 20.5682 127.073 21.0982C128.12 21.6281 129.507 21.8792 131.206 21.8792C133.074 21.8792 134.489 21.6281 135.48 21.0982C136.442 20.5682 136.924 19.843 136.924 18.8946C136.924 18.0857 136.442 17.4999 135.508 17.1094C134.574 16.7468 133.074 16.5515 131.036 16.5515C127.809 16.5515 125.459 16.1052 123.987 15.1848C122.543 14.2643 121.807 12.7859 121.807 10.7218C121.807 8.62981 122.6 7.03989 124.185 5.95205C125.771 4.8642 128.12 4.33423 131.177 4.33423C132.593 4.33423 133.866 4.50159 135.027 4.80842C136.188 5.11524 137.178 5.56154 137.971 6.1473C138.792 6.70517 139.415 7.4025 139.868 8.21141C140.321 9.02032 140.547 9.91291 140.547 10.8892H136.471C136.471 10.0245 135.99 9.32715 135.027 8.79717C134.065 8.29509 132.762 8.01616 131.177 8.01616C127.639 8.01616 125.884 8.93664 125.884 10.7497C125.884 11.5307 126.308 12.0886 127.158 12.4233C128.007 12.758 129.422 12.9254 131.375 12.9254C134.744 12.9254 137.178 13.3996 138.707 14.348C140.207 15.2963 140.972 16.8305 140.972 18.9225C140.972 21.0982 140.151 22.7439 138.481 23.8875C136.81 25.0032 134.376 25.589 131.177 25.589C129.705 25.589 128.375 25.4216 127.186 25.1148C125.997 24.808 124.95 24.3617 124.1 23.7759C123.251 23.2181 122.572 22.5207 122.091 21.7118C121.638 20.875 121.411 19.9824 121.411 19.0062Z" fill="white"/>
</g>
<defs>
<clipPath id="clip0">
<rect width="141" height="24.8809" fill="white" transform="translate(0 0.652344)"/>
</clipPath>
</defs>
</svg>
